<svg xmlns="http://www.w3.org/2000/svg" xmlns:xlink="http://www.w3.org/1999/xlink" viewBox="0,0,256,256" width="50px" height="50px"><g fill="#9495a4" fill-rule="nonzero" stroke="none" stroke-width="1" stroke-linecap="butt" stroke-linejoin="miter" stroke-miterlimit="10" stroke-dasharray="" stroke-dashoffset="0" font-family="none" font-weight="none" font-size="none" text-anchor="none" style="mix-blend-mode: normal"><g transform="scale(5.12,5.12)"><path d="M14,3.99023c-5.51133,0 -10,4.48867 -10,10v22c0,5.51133 4.48867,10 10,10h22c5.51133,0 10,-4.48867 10,-10v-22c0,-5.51133 -4.48867,-10 -10,-10zM14,5.99023h22c4.43067,0 8,3.56933 8,8v22c0,4.43067 -3.56933,8 -8,8h-22c-4.43067,0 -8,-3.56933 -8,-8v-22c0,-4.43067 3.56933,-8 8,-8zM25,8c-9.377,0 -17,7.623 -17,17c0,9.377 7.623,17 17,17c9.377,0 17,-7.623 17,-17c0,-9.377 -7.623,-17 -17,-17zM25,10c8.29612,0 15,6.70388 15,15c0,8.29612 -6.70388,15 -15,15c-8.29612,0 -15,-6.70388 -15,-15c0,-8.29612 6.70388,-15 15,-15zM25,12c-1.10105,0 -2.16992,0.13335 -3.19141,0.39063h-0.00195c-1.27081,0.32067 -1.88676,1.82129 -1.23633,2.94727l4.42578,7.66211v0.00195c0.35662,0.61557 1.01679,0.99805 1.73047,0.99805h8.84766c1.30148,0 2.28893,-1.28545 1.93359,-2.54492c-1.5413,-5.46282 -6.56366,-9.45508 -12.50781,-9.45508zM25,14c5.04985,0 9.27933,3.38087 10.58203,7.99805c0.0047,0.01653 0.0147,0.00195 -0.00781,0.00195h-3.28125c-1.37997,-3.33199 -4.77338,-5.28925 -8.3457,-4.81641l-1.64453,-2.84766c-0.01156,-0.02002 -0.01901,-0.00246 -0.00586,-0.00586c0.86054,-0.21674 1.76417,-0.33008 2.70313,-0.33008zM16.90625,15.35352c-0.45006,0.04153 -0.88861,0.2325 -1.23047,0.58398c-2.27548,2.34155 -3.67578,5.54676 -3.67578,9.0625c0,3.51553 1.39834,6.72095 3.67383,9.0625c0.91213,0.9378 2.51816,0.72645 3.16992,-0.40039h0.00195l4.43164,-7.67187c0.35769,-0.61947 0.35418,-1.38528 -0.00195,-2.00195l-4.43164,-7.6543c-0.32599,-0.56263 -0.8895,-0.89668 -1.48633,-0.97266c-0.14921,-0.01899 -0.30115,-0.02165 -0.45117,-0.00781zM17.10938,17.33203c0.01237,-0.01272 -0.00809,-0.01493 0.00391,0.00586l1.64648,2.8418c-2.19929,2.86125 -2.19713,6.7784 -0.00195,9.63672l-1.64453,2.8457c-0.01224,0.02116 0.00604,0.01802 -0.00586,0.00586c-1.92642,-1.98253 -3.10742,-4.6815 -3.10742,-7.66797c0,-2.98567 1.18353,-5.68562 3.10938,-7.66797zM25.90625,19.06445c1.76179,0.2673 3.25354,1.37638 4.17383,2.93555h-3.35352v-0.00195l-1.67383,-2.89648c0.28378,0.0025 0.57714,-0.07904 0.85352,-0.03711zM19.86719,22.09375l1.67773,2.89648l-1.68164,2.91016c-1.03044,-1.82345 -1.02977,-3.98183 0.00391,-5.80664zM26.72656,26c-0.71368,0 -1.37385,0.38243 -1.73047,0.99805v0.00195l-4.42578,7.66406c-0.64916,1.12574 -0.03353,2.62488 1.23633,2.94531h0.00195c1.02144,0.25727 2.09036,0.39063 3.19141,0.39063c5.94415,0 10.96652,-3.99225 12.50781,-9.45508c0.35534,-1.25947 -0.63212,-2.54492 -1.93359,-2.54492zM26.72656,28h3.35352c-1.06388,1.80138 -2.93298,2.87937 -5.02734,2.89844l1.67383,-2.89648zM32.29102,28h3.2832c0.02252,0 0.01249,-0.01463 0.00781,0.00195c-1.30269,4.61713 -5.53218,7.99805 -10.58203,7.99805c-0.93895,0 -1.84261,-0.11335 -2.70312,-0.33008c-0.01414,-0.0036 -0.00704,0.01444 0.00586,-0.00781l1.64453,-2.84766c3.57496,0.4717 6.96511,-1.48675 8.34375,-4.81445z"></path></g></g></svg>