<!DOCTYPE svg PUBLIC "-//W3C//DTD SVG 1.1//EN" "http://www.w3.org/Graphics/SVG/1.1/DTD/svg11.dtd">
<!-- Uploaded to: SVG Repo, www.svgrepo.com, Transformed by: SVG Repo Mixer Tools -->
<svg fill="#9495A4" height="800px" width="800px" version="1.1" id="Capa_1" xmlns="http://www.w3.org/2000/svg" xmlns:xlink="http://www.w3.org/1999/xlink" viewBox="0 0 384.97 384.97" xml:space="preserve" stroke="#9495A4">
<g id="SVGRepo_bgCarrier" stroke-width="0"/>
<g id="SVGRepo_tracerCarrier" stroke-linecap="round" stroke-linejoin="round"/>
<g id="SVGRepo_iconCarrier"> <g> <g id="Settings"> <path d="M12.03,84.212h360.909c6.641,0,12.03-5.39,12.03-12.03c0-6.641-5.39-12.03-12.03-12.03H12.03 C5.39,60.152,0,65.541,0,72.182C0,78.823,5.39,84.212,12.03,84.212z"/> <path d="M372.939,300.758H12.03c-6.641,0-12.03,5.39-12.03,12.03c0,6.641,5.39,12.03,12.03,12.03h360.909 c6.641,0,12.03-5.39,12.03-12.03C384.97,306.147,379.58,300.758,372.939,300.758z"/> <path d="M336.848,144.364c-22.4,0-41.059,15.375-46.425,36.091H12.03c-6.641,0-12.03,5.39-12.03,12.03s5.39,12.03,12.03,12.03 h278.393c5.366,20.716,24.025,36.091,46.425,36.091c26.575,0,48.121-21.546,48.121-48.121S363.423,144.364,336.848,144.364z M336.848,216.545c-13.293,0-24.061-10.779-24.061-24.061c0-13.281,10.767-24.061,24.061-24.061s24.061,10.767,24.061,24.061 C360.909,205.766,350.142,216.545,336.848,216.545z"/> </g> <g> </g> <g> </g> <g> </g> <g> </g> <g> </g> <g> </g> </g> </g>
</svg>